<svg width="12" height="7" viewBox="0 0 12 7" fill="none" xmlns="http://www.w3.org/2000/svg">
<path d="M0.664062 1.5C0.664062 1.40625 0.682292 1.32031 0.71875 1.24219C0.755208 1.15885 0.802083 1.08854 0.859375 1.03125C0.921875 0.96875 0.992188 0.919271 1.07031 0.882812C1.15365 0.846354 1.24219 0.828125 1.33594 0.828125C1.4349 0.828125 1.52083 0.846354 1.59375 0.882812C1.66667 0.914062 1.73698 0.963542 1.80469 1.03125L6 5.22656L10.1953 1.03125C10.3307 0.895833 10.487 0.828125 10.6641 0.828125C10.7578 0.828125 10.8438 0.846354 10.9219 0.882812C11.0052 0.919271 11.0755 0.96875 11.1328 1.03125C11.1953 1.08854 11.2448 1.15885 11.2812 1.24219C11.3177 1.32031 11.3359 1.40625 11.3359 1.5C11.3359 1.68229 11.2708 1.83854 11.1406 1.96875L6.46875 6.64062C6.33854 6.77083 6.18229 6.83594 6 6.83594C5.81771 6.83594 5.66146 6.77083 5.53125 6.64062L0.859375 1.96875C0.729167 1.83854 0.664062 1.68229 0.664062 1.5Z" fill="black" fill-opacity="0.8956"/>
</svg>
