<svg width="12" height="7" viewBox="0 0 12 7" fill="none" xmlns="http://www.w3.org/2000/svg">
<path d="M0.664062 5.5C0.664062 5.31771 0.729167 5.16146 0.859375 5.03125L5.53125 0.359375C5.66146 0.229167 5.81771 0.164062 6 0.164062C6.18229 0.164062 6.33854 0.229167 6.46875 0.359375L11.1406 5.03125C11.2708 5.16146 11.3359 5.31771 11.3359 5.5C11.3359 5.6875 11.2682 5.84635 11.1328 5.97656C11.0026 6.10156 10.8464 6.16406 10.6641 6.16406C10.4818 6.16406 10.3255 6.09896 10.1953 5.96875L6 1.77344L1.80469 5.96875C1.67448 6.09896 1.51823 6.16406 1.33594 6.16406C1.15365 6.16406 0.994792 6.10156 0.859375 5.97656C0.729167 5.84635 0.664062 5.6875 0.664062 5.5Z" fill="black" fill-opacity="0.8956"/>
</svg>
