<svg width="20" height="21" viewBox="0 0 20 21" fill="none" xmlns="http://www.w3.org/2000/svg">
<path fill-rule="evenodd" clip-rule="evenodd" d="M20 10.667C20 16.1898 15.5228 20.667 10 20.667C4.47715 20.667 0 16.1898 0 10.667C0 5.14414 4.47715 0.666992 10 0.666992C15.5228 0.666992 20 5.14414 20 10.667ZM18 10.667C18 15.0853 14.4183 18.667 10 18.667C5.58172 18.667 2 15.0853 2 10.667C2 6.24871 5.58172 2.66699 10 2.66699C12.3582 2.66699 14.478 3.68731 15.9422 5.31057L9 12.2528L6.20711 9.45989C5.81658 9.06936 5.18342 9.06936 4.79289 9.45989C4.40237 9.85041 4.40237 10.4836 4.79289 10.8741L7.58579 13.667C8.36684 14.448 9.63317 14.448 10.4142 13.667L17.1015 6.97975C17.6755 8.08315 18 9.33718 18 10.667Z" fill="#83BF6E"/>
</svg>
