<svg width="24" height="24" viewBox="0 0 24 24" fill="none" xmlns="http://www.w3.org/2000/svg">
<g clip-path="url(#clip0_113_25009)">
<path d="M22.28 6.67607C22.0966 6.56874 21.8586 6.62925 21.7498 6.8133C21.6414 6.9977 21.703 7.23469 21.887 7.34346C21.9065 7.35498 23.8459 8.53526 23.0186 11.3456C22.9581 11.5505 23.0755 11.7659 23.2804 11.8264C23.3172 11.8372 23.3539 11.8422 23.3899 11.8422C23.5571 11.8422 23.7116 11.7335 23.7613 11.5646C24.7579 8.1812 22.3047 6.69122 22.2799 6.67601L22.28 6.67607Z" fill="#5C58BB"/>
<path d="M4.70973 21.2651C2.4281 21.2651 1.61488 19.5947 1.58058 19.5227C1.49126 19.3289 1.26148 19.2461 1.06771 19.3336C0.873575 19.423 0.787855 19.6527 0.87718 19.8472C0.918599 19.9365 1.91657 22.0395 4.70927 22.0395C4.92321 22.0395 5.09645 21.8659 5.09645 21.6523C5.09717 21.4388 4.92357 21.2652 4.70963 21.2652L4.70973 21.2651Z" fill="#5C58BB"/>
<path fill-rule="evenodd" clip-rule="evenodd" d="M19.5162 5.98929C19.9837 6.84128 20.7731 8.28028 21.0293 8.74848L21.0291 8.74736C22.1819 10.8486 19.2238 14.6853 14.4236 17.3185C9.62285 19.9517 4.797 20.3839 3.64522 18.2834C3.47694 17.9762 3.0804 17.2529 2.69563 16.551C2.34821 15.9172 2.01038 15.301 1.85881 15.0243L1.85772 15.0207C0.70557 12.9191 3.66497 9.08408 8.46491 6.45236C11.217 4.94259 13.9772 4.15672 16.0489 4.15672L16.05 4.15672C17.2054 4.15672 18.1465 4.40127 18.7523 4.90226C18.954 5.06973 19.119 5.26494 19.2418 5.48896C19.305 5.60431 19.4008 5.7789 19.5162 5.98929ZM3.79517 16.2356L4.6239 17.7465C4.78201 18.0353 5.14505 18.2525 5.67629 18.3764L4.55835 16.3368C4.28787 16.3191 4.03468 16.2842 3.79517 16.2356ZM5.40725 16.3429L6.58531 18.4891C6.84175 18.4974 7.12596 18.4873 7.42093 18.4671L6.21834 16.2752C5.93993 16.3084 5.66836 16.3314 5.40725 16.3429ZM7.0005 16.1535L8.22005 18.3764C8.46893 18.3397 8.72498 18.2943 8.99006 18.237L7.76009 15.9914C7.50149 16.0537 7.24901 16.107 7.0005 16.1535ZM8.50062 15.794L9.73816 18.0533C9.97622 17.9889 10.2189 17.915 10.4671 17.8351L9.22384 15.5678C8.98036 15.651 8.73869 15.7252 8.50062 15.794ZM9.93224 15.315L11.1777 17.5848C11.4435 17.4853 11.714 17.378 11.9884 17.2613L10.7404 14.9844C10.4692 15.0996 10.1991 15.2127 9.93224 15.315ZM11.4191 14.6739L12.6695 16.9545C12.9616 16.8165 13.2573 16.6696 13.5559 16.5126L12.3055 14.2299C12.0098 14.3869 11.7141 14.5338 11.4191 14.6739ZM12.958 13.8725L14.2092 16.1553C14.5046 15.9863 14.7873 15.8159 15.0603 15.6434L13.8098 13.3629C13.5329 13.5358 13.2487 13.7069 12.958 13.8725ZM14.4346 12.9574L15.683 15.234C15.9293 15.0654 16.1663 14.8954 16.3929 14.7236L15.1471 12.4539C14.918 12.6243 14.6788 12.7928 14.4346 12.9574ZM15.7421 11.9918L16.9849 14.2594C17.1866 14.093 17.3793 13.9266 17.5612 13.7616L16.3219 11.5027C16.1346 11.6669 15.943 11.8308 15.7421 11.9918ZM16.8863 10.9848L18.1176 13.2304L18.1177 13.2305C18.3097 13.0357 18.4847 12.8448 18.6504 12.6557L17.4309 10.4334C17.2591 10.6168 17.0772 10.8012 16.8863 10.9848ZM17.9527 9.83776L19.1553 12.0297C19.3314 11.7916 19.492 11.5579 19.6224 11.3364L18.4447 9.19019C18.2956 9.40448 18.1313 9.62093 17.9527 9.83776ZM18.8985 8.47086L20.0168 10.5087L20.0168 10.5086C20.1972 9.99503 20.2102 9.57148 20.051 9.28407L19.2612 7.84526C19.2327 7.87177 19.2037 7.89963 19.175 7.92725C19.1675 7.93452 19.1599 7.94177 19.1524 7.94898C19.0786 8.12042 18.9957 8.29438 18.8985 8.47086ZM9.09804 9.0344C9.0005 9.27252 8.99265 9.50451 9.07447 9.73039L9.07455 9.73031C9.12965 9.95603 9.23058 10.1846 9.37742 10.4158L8.15905 11.3763C8.10873 11.3023 8.06618 11.2261 8.03117 11.1475C8.027 11.0923 8.0209 11.0418 8.013 10.9957C7.94376 10.9353 7.92038 10.8616 7.94265 10.7745C7.90764 10.6959 7.90673 10.5834 7.94008 10.4366L6.57949 10.7615C6.56163 10.9359 6.5477 11.1013 6.53734 11.2574C6.51524 11.3767 6.53717 11.5033 6.60307 11.6373C6.62711 11.7754 6.65653 11.8997 6.69181 12.0104C6.73061 12.1118 6.804 12.2115 6.91165 12.3089L5.81875 13.2086L6.2164 13.564L7.28681 12.7192C7.42858 12.7987 7.58583 12.8738 7.75806 12.9443C7.94966 13.0336 8.18276 13.0703 8.45758 13.0544C9.11036 13.0331 9.78761 12.7386 10.4899 12.1707C10.5051 12.1663 10.5639 12.1208 10.6662 12.0345C10.7346 11.9662 10.8199 11.8888 10.9224 11.8025C10.9864 11.6791 11.0541 11.5625 11.126 11.4529C11.2015 11.3341 11.2674 11.206 11.3236 11.0687C11.3448 10.8528 11.3243 10.6412 11.2617 10.4339C11.1875 10.2216 11.0925 10.0117 10.9763 9.8037L12.2687 8.76129C12.2959 8.82574 12.3269 8.88132 12.3615 8.92756C12.3924 8.98291 12.4387 9.05004 12.5005 9.12881C12.5317 9.21654 12.563 9.32023 12.5944 9.43988C12.5879 9.58708 12.6042 9.74342 12.6437 9.90926L13.9585 9.59781C13.9418 9.40908 13.929 9.22743 13.9202 9.05273C13.8808 8.8869 13.8509 8.73032 13.8309 8.58307C13.7727 8.46304 13.703 8.33832 13.6219 8.20876C13.5561 8.10708 13.4771 8.00511 13.3847 7.90315L14.353 7.16104L13.9495 6.8192L12.9988 7.56864C12.8378 7.50271 12.696 7.42321 12.5732 7.33019C12.3894 7.287 12.1812 7.25518 11.9483 7.23455C11.7077 7.23233 11.4806 7.26227 11.2674 7.32459C11.0386 7.39138 10.7856 7.50152 10.5081 7.65516C10.3028 7.76357 10.1033 7.89034 9.90964 8.0356C9.71977 8.17159 9.54531 8.33536 9.38627 8.52687C9.23496 8.70011 9.13884 8.86938 9.09804 9.0344ZM9.52954 11.6169C9.42322 11.7124 9.30918 11.778 9.18722 11.8135C9.04628 11.8628 8.91662 11.8685 8.798 11.8305C8.7484 11.8208 8.70039 11.8067 8.65453 11.7879C8.60471 11.7781 8.56282 11.7663 8.5282 11.7521L9.59855 10.9074L9.71994 11.0533C9.72039 11.1176 9.73625 11.1776 9.76708 11.2331C9.74086 11.2971 9.72605 11.366 9.72277 11.4394C9.66982 11.5032 9.60542 11.5624 9.52954 11.6169ZM10.7155 9.35991C10.654 9.31343 10.6213 9.26249 10.6171 9.2073C10.5745 9.14716 10.553 9.08487 10.5526 9.02056C10.5445 8.94232 10.5611 8.86905 10.6026 8.80049C10.6251 8.74545 10.6914 8.68173 10.8017 8.60928C10.9192 8.5184 11.0314 8.44141 11.1379 8.37807C11.2673 8.35633 11.3876 8.34148 11.4983 8.33334C11.5747 8.34318 11.6474 8.36234 11.7162 8.39052C11.77 8.4232 11.8199 8.44894 11.8658 8.46772L10.7155 9.35991Z" fill="#5C58BB"/>
</g>
<defs>
<clipPath id="clip0_113_25009">
<rect width="24" height="24" fill="white"/>
</clipPath>
</defs>
</svg>
