<svg width="58" height="100" viewBox="0 0 58 100" fill="none" xmlns="http://www.w3.org/2000/svg">
<path d="M24.6386 66.4987C23.5497 66.316 22.4788 66.0228 21.4401 65.6228C20.1249 65.2058 18.8536 64.6399 17.6469 63.9342L17.3713 63.7922H17.3133C12.1058 60.636 8.10954 54.9311 7.52206 48.4371C6.79678 40.0573 7.18843 31.5434 7.10865 23.0925C7.10865 22.9742 7.26096 22.8558 7.49305 22.5244C17.937 23.4634 24.392 29.6259 27.2859 40.6728C27.2859 40.515 27.2859 40.8148 27.2859 40.6728V44.7522V52.5165C27.2859 57.172 27.2859 61.8196 27.2859 66.4671C27.2912 67.4012 27.2159 68.3337 27.061 69.2525C26.4874 72.5858 24.8543 75.5934 22.4477 77.7486C20.041 79.9038 17.0142 81.0693 13.8972 81.041C9.71965 81.041 5.54931 81.041 1.37896 81.041H0.653684V66.4987H24.6386Z" fill="black"/>
<path d="M57.3467 99.1263H0.680761V84.6865H57.3467V99.1263Z" fill="black"/>
<path d="M43.8203 81.0377C40.9802 81.0104 38.2236 79.99 35.9576 78.1272C33.6916 76.2644 32.0365 73.658 31.2367 70.6932C30.9276 69.3326 30.6855 67.9551 30.5114 66.5664H57.3467V80.9983C57.1073 80.9983 56.9115 81.0456 56.7157 81.0456C52.4148 81.0456 48.1139 81.0772 43.8203 81.0377Z" fill="black"/>
<path d="M48.9652 31.5753C45.5201 39.9946 39.2174 44.145 30.6156 44.8V44.8631V40.3181C30.7534 34.2502 30.7897 28.2613 30.7462 22.2723C30.6818 17.7024 32.059 13.2465 34.6482 9.64738C38.6299 3.98194 43.8737 0.873047 50.6478 0.873047C50.7583 1.3737 50.8335 1.88281 50.8726 2.39593C50.8726 9.16606 51.0612 15.9441 50.8001 22.6984C50.6929 25.7546 50.071 28.7635 48.9652 31.5753V31.5753Z" fill="#78BB58"/>
</svg>
