<?xml version="1.0" encoding="utf-8"?>
<svg width="211" height="161" viewBox="0 0 211 161" fill="none" xmlns="http://www.w3.org/2000/svg">
  <path fill-rule="evenodd" clip-rule="evenodd" d="M 49.965 160.383 C 46.181 161.64 42.569 158.099 43.85 154.389 L 81.49 45.441 C 81.726 44.757 82.612 44.554 83.132 45.065 L 161.48 121.873 C 162.001 122.384 161.794 123.253 161.097 123.484 L 49.965 160.383 Z" fill="#7B61FF" style=""/>
  <ellipse cx="123.631" cy="82.9196" rx="24.1671" ry="57.0513" transform="rotate(-45 123.631 82.9196)" fill="#60449C"/>
  <path d="M115.234 68.5945C114.652 68.5945 102.37 67.3939 103.829 58.3578C106.543 45.6582 129.219 59.4469 130.68 46.0571C130.68 33.5624 106.847 43.0525 107.177 29.4858C108.913 15.5045 130.221 28.7308 133.232 17.2519C135.406 6.63057 120.564 6.27246 119.991 6.27246" stroke="#27B33D" stroke-width="2.83936" stroke-linecap="round" stroke-linejoin="round"/>
  <path d="M192.842 147.116C199.591 145.273 207.357 144.298 206.054 136.728C202.61 124.717 182.315 140.409 178.893 127.277C176.708 113.359 200.836 120.2 200.566 108.335C199.729 97.5261 185.363 101.273 184.812 101.431" stroke="#427B9E" stroke-width="2.83936" stroke-linecap="round" stroke-linejoin="round"/>
  <path d="M133.65 92.8048C133.65 92.8048 160.568 71.0562 200.686 78.1982" stroke="#007AFF" stroke-width="2.83936" stroke-linecap="round"/>
  <ellipse cx="159.743" cy="43.4525" rx="9.4102" ry="9.40171" fill="#1AAF78"/>
  <ellipse cx="66.0684" cy="83.1956" rx="9.41021" ry="9.40171" fill="#53AADF"/>
  <ellipse cx="183.227" cy="7.47687" rx="7.27152" ry="7.26496" fill="#5DD168"/>
  <ellipse cx="158.983" cy="152.931" rx="7.27152" ry="7.26496" fill="#5DD168"/>
  <ellipse cx="186.263" cy="52.8538" rx="5.13284" ry="5.1282" fill="#E83E62"/>
  <path d="M64.0002 58.0746C64.0002 58.0746 74.4943 9.2501 59.2759 8.52246C50.3541 8.52246 48.9961 24.6956 48.9961 24.6956" stroke="#08D388" stroke-width="2.83936" stroke-linecap="round"/>
</svg>