<svg width="40" height="40" viewBox="0 0 40 40" fill="none" xmlns="http://www.w3.org/2000/svg">
<rect width="40" height="40" rx="20" fill="#A6F1BB"/>
<g clip-path="url(#clip0_113_21819)">
<path d="M28.49 21.2239H28.489L22.0184 24.5938H22.053C21.0099 25.1371 20.1914 26.5436 20.1914 27.7194V31.9957L28.5251 27.6382C29.5678 27.095 30.3883 25.6884 30.3883 24.5126V20.2363L28.49 21.2239Z" fill="#144A23"/>
<path d="M10.8983 19.728H10.8993L17.3699 23.0979H17.3354C18.3784 23.6411 19.1969 25.0475 19.1969 26.2237V30.5L10.8632 26.1421C9.82052 25.5989 9 24.1923 9 23.0163V18.7402L10.8983 19.728Z" fill="#144A23"/>
<path d="M26.4379 16.2468H26.4172L21.554 18.774H21.5836C20.8017 19.1817 20.1914 20.2365 20.1914 21.1185V24.3257L26.4726 21.0575C27.2548 20.6499 27.9012 19.595 27.9012 18.7131V15.5059L26.4379 16.2468Z" fill="#144A23"/>
<path d="M12.9507 14.7505H12.9713L17.8345 17.2781H17.8049C18.5868 17.6855 19.1971 18.7405 19.1971 19.6224V22.8296L12.9159 19.5612C12.1337 19.1539 11.4873 18.0989 11.4873 17.217V14.0098L12.9507 14.7505Z" fill="#144A23"/>
<path d="M24.2613 12.9797H24.2831L21.0589 14.6647H21.0992C20.5777 14.9363 20.1914 15.6396 20.1914 16.2275V18.3653L24.2961 16.1866C24.8176 15.9154 25.1655 15.2121 25.1655 14.6241V12.4863L24.2613 12.9797Z" fill="#144A23"/>
<path d="M22.0655 12.0016C22.0976 11.5091 21.8017 11.0284 21.4915 10.5747C21.4913 10.5742 19.729 7.99609 19.729 7.99609L18.1333 10.2369C17.7966 10.7189 17.9075 11.3994 18.38 11.7493C18.7806 12.0463 19.2541 12.3532 19.5896 12.7327C19.9403 13.1294 20.0261 13.5577 20.0793 14.0544C20.1363 14.0335 21.4082 13.1964 21.8205 12.6377C21.9782 12.4242 22.0518 12.2116 22.0655 12.0015V12.0016Z" fill="#144A23"/>
<path d="M15.1269 11.4836H15.1051L18.3293 13.1686H18.289C18.8105 13.4402 19.1968 14.1435 19.1968 14.7314V16.8692L15.0921 14.6906C14.5706 14.4193 14.2227 13.716 14.2227 13.1281V10.9902L15.1269 11.4836Z" fill="#144A23"/>
</g>
<defs>
<clipPath id="clip0_113_21819">
<rect width="24" height="24" fill="white" transform="translate(8 8)"/>
</clipPath>
</defs>
</svg>
