<svg width="92" height="86" viewBox="0 0 92 86" fill="none" xmlns="http://www.w3.org/2000/svg">
<path d="M69.1973 41.1986C67.1766 41.1986 65.2212 41.4784 63.3623 41.9924C52.3802 31.7287 35.0962 31.9437 24.3855 42.6523C23.4083 43.6282 23.4083 45.2116 24.3855 46.1875C24.8738 46.6758 25.5135 46.9192 26.1538 46.9192C26.7941 46.9192 27.4331 46.6751 27.9221 46.1875C36.1712 37.9404 49.156 37.2854 58.1863 44.1764C54.7683 46.1707 51.9356 49.0607 50.0131 52.5254C45.599 49.9612 39.8401 50.5527 36.0644 54.3305C31.5701 58.8277 31.5701 66.1455 36.0651 70.6434C38.314 72.8923 41.2674 74.0168 44.2208 74.0168C46.0358 74.0168 47.8501 73.5878 49.5004 72.7396C53.0697 80.0199 60.5565 85.0464 69.1969 85.0464C81.286 85.0464 91.1201 75.2117 91.1201 63.1232C91.1208 51.0348 81.2861 41.1999 69.1969 41.1999L69.1973 41.1986ZM47.8134 67.9468C45.2771 69.6168 41.8264 69.3371 39.5991 67.1098C37.0523 64.5596 37.0523 60.4141 39.5984 57.8646C41.9093 55.5543 45.5282 55.3464 48.0846 57.2257C47.5594 59.1035 47.2713 61.0796 47.2713 63.1221C47.2727 64.7802 47.4638 66.3928 47.8133 67.9471L47.8134 67.9468ZM69.1973 80.0458C59.8655 80.0458 52.2736 72.4536 52.2736 63.122C52.2736 53.7904 59.8657 46.1983 69.1973 46.1983C78.5291 46.1983 86.1211 53.7904 86.1211 63.122C86.1211 72.4536 78.5289 80.0458 69.1973 80.0458ZM72.0503 34.6583C72.5386 35.1466 73.1783 35.39 73.8186 35.39C74.4589 35.39 75.0986 35.1459 75.5869 34.6583C76.5641 33.681 76.5641 32.0983 75.5869 31.1231C58.2919 13.8303 30.1512 13.831 12.8601 31.1231C11.8828 32.1004 11.8828 33.6831 12.8601 34.6583C13.8374 35.6356 15.4194 35.6356 16.3953 34.6583C31.7371 19.3144 56.7042 19.3129 72.0506 34.6583H72.0503ZM84.175 22.5322C84.6633 23.0205 85.3029 23.264 85.9432 23.264C86.5836 23.264 87.2226 23.0198 87.7115 22.5322C88.6888 21.5564 88.6888 19.9729 87.7115 18.997C76.0974 7.38222 60.6526 0.986328 44.2222 0.986328C27.7915 0.986328 12.3472 7.38204 0.732951 18.997C-0.244317 19.9729 -0.244317 21.5563 0.732951 22.5322C1.71022 23.5081 3.29224 23.5095 4.26813 22.5322C14.9392 11.8619 29.1271 5.98651 44.2235 5.98651C59.3183 5.98581 73.5056 11.8619 84.1753 22.5315L84.175 22.5322ZM68.6853 51.1876C67.3042 51.1876 66.1853 52.3064 66.1853 53.6876V64.0202C66.1853 65.4014 67.3042 66.5202 68.6853 66.5202C70.0665 66.5202 71.1853 65.4014 71.1853 64.0202V53.6876C71.1853 52.3071 70.0665 51.1876 68.6853 51.1876ZM68.6853 69.021C67.3042 69.021 66.1853 70.1398 66.1853 71.521V71.6877C66.1853 73.0688 67.3042 74.1877 68.6853 74.1877C70.0665 74.1877 71.1853 73.0688 71.1853 71.6877V71.521C71.1853 70.1398 70.0665 69.021 68.6853 69.021Z" fill="#6F767E"/>
</svg>
