<svg width="92" height="85" viewBox="0 0 92 85" fill="none" xmlns="http://www.w3.org/2000/svg">
<path d="M69.1973 40.2123C67.1766 40.2123 65.2212 40.492 63.3623 41.0061C52.3802 30.7424 35.0962 30.9574 24.3855 41.666C23.4083 42.6419 23.4083 44.2253 24.3855 45.2012C24.8738 45.6895 25.5135 45.9329 26.1538 45.9329C26.7941 45.9329 27.4331 45.6888 27.9221 45.2012C36.1712 36.954 49.156 36.299 58.1863 43.1901C54.7683 45.1844 51.9356 48.0744 50.0131 51.539C45.599 48.9749 39.8401 49.5663 36.0644 53.3442C31.5701 57.8414 31.5701 65.1592 36.0651 69.6571C38.314 71.906 41.2674 73.0304 44.2208 73.0304C46.0358 73.0304 47.8501 72.6015 49.5004 71.7533C53.0697 79.0336 60.5565 84.06 69.1969 84.06C81.286 84.06 91.1201 74.2254 91.1201 62.1368C91.1208 50.0484 81.2861 40.2136 69.1969 40.2136L69.1973 40.2123ZM47.8134 66.9605C45.2771 68.6304 41.8264 68.3507 39.5991 66.1235C37.0523 63.5733 37.0523 59.4278 39.5984 56.8783C41.9093 54.5679 45.5282 54.3601 48.0846 56.2393C47.5594 58.1172 47.2713 60.0933 47.2713 62.1358C47.2727 63.7938 47.4638 65.4065 47.8133 66.9608L47.8134 66.9605ZM69.1973 79.0595C59.8655 79.0595 52.2736 71.4673 52.2736 62.1357C52.2736 52.8041 59.8657 45.212 69.1973 45.212C78.5291 45.212 86.1211 52.8041 86.1211 62.1357C86.1211 71.4673 78.5289 79.0595 69.1973 79.0595ZM72.0503 33.672C72.5386 34.1602 73.1783 34.4037 73.8186 34.4037C74.4589 34.4037 75.0986 34.1595 75.5869 33.672C76.5641 32.6947 76.5641 31.112 75.5869 30.1368C58.2919 12.8439 30.1512 12.8446 12.8601 30.1368C11.8828 31.114 11.8828 32.6968 12.8601 33.672C13.8374 34.6492 15.4194 34.6492 16.3953 33.672C31.7371 18.328 56.7042 18.3266 72.0506 33.672H72.0503ZM84.175 21.5459C84.6633 22.0342 85.3029 22.2776 85.9432 22.2776C86.5836 22.2776 87.2226 22.0335 87.7115 21.5459C88.6888 20.57 88.6888 18.9866 87.7115 18.0107C76.0974 6.39589 60.6526 0 44.2222 0C27.7915 0 12.3472 6.39571 0.732951 18.0107C-0.244317 18.9866 -0.244317 20.57 0.732951 21.5459C1.71022 22.5217 3.29224 22.5232 4.26813 21.5459C14.9392 10.8755 29.1271 5.00018 44.2235 5.00018C59.3183 4.99948 73.5056 10.8755 84.1753 21.5452L84.175 21.5459ZM68.6853 50.2012C67.3042 50.2012 66.1853 51.3201 66.1853 52.7012V63.0339C66.1853 64.4151 67.3042 65.5339 68.6853 65.5339C70.0665 65.5339 71.1853 64.4151 71.1853 63.0339V52.7012C71.1853 51.3208 70.0665 50.2012 68.6853 50.2012ZM68.6853 68.0346C67.3042 68.0346 66.1853 69.1535 66.1853 70.5346V70.7013C66.1853 72.0825 67.3042 73.2013 68.6853 73.2013C70.0665 73.2013 71.1853 72.0825 71.1853 70.7013V70.5346C71.1853 69.1535 70.0665 68.0346 68.6853 68.0346Z" fill="#FC4747"/>
</svg>
