<svg width="8" height="12" viewBox="0 0 8 12" fill="none" xmlns="http://www.w3.org/2000/svg">
<path d="M0.792893 10.2929C0.402369 10.6834 0.402369 11.3166 0.792893 11.7071C1.18342 12.0976 1.81658 12.0976 2.20711 11.7071L0.792893 10.2929ZM6.5 6L7.20711 6.70711C7.59763 6.31658 7.59763 5.68342 7.20711 5.29289L6.5 6ZM2.20711 0.292893C1.81658 -0.0976305 1.18342 -0.0976305 0.792893 0.292893C0.402368 0.683417 0.402368 1.31658 0.792893 1.70711L2.20711 0.292893ZM2.20711 11.7071L7.20711 6.70711L5.79289 5.29289L0.792893 10.2929L2.20711 11.7071ZM7.20711 5.29289L2.20711 0.292893L0.792893 1.70711L5.79289 6.70711L7.20711 5.29289Z" fill="#1A1D1F"/>
</svg>
