<svg width="38" height="31" viewBox="0 0 38 31" fill="none" xmlns="http://www.w3.org/2000/svg">
<path d="M35.6666 12.333V7.66634C35.6666 5.7995 35.6666 4.86608 35.3033 4.15304C34.9837 3.52583 34.4738 3.0159 33.8466 2.69632C33.1335 2.33301 32.2001 2.33301 30.3333 2.33301H7.66659C5.79974 2.33301 4.86632 2.33301 4.15328 2.69632C3.52608 3.0159 3.01614 3.52583 2.69656 4.15304C2.33325 4.86608 2.33325 5.7995 2.33325 7.66634V13.6663C2.33325 15.5332 2.33325 16.4666 2.69656 17.1796C3.01614 17.8069 3.52608 18.3168 4.15328 18.6364C4.86632 18.9997 5.79974 18.9997 7.66659 18.9997H17.3333M18.9999 10.6663H19.0083M27.3333 10.6663H27.3416M10.6666 10.6663H10.6749M31.0833 22.333V19.4163C31.0833 17.8055 29.7774 16.4997 28.1666 16.4997C26.5558 16.4997 25.2499 17.8055 25.2499 19.4163V22.333M19.4166 10.6663C19.4166 10.8965 19.23 11.083 18.9999 11.083C18.7698 11.083 18.5833 10.8965 18.5833 10.6663C18.5833 10.4362 18.7698 10.2497 18.9999 10.2497C19.23 10.2497 19.4166 10.4362 19.4166 10.6663ZM27.7499 10.6663C27.7499 10.8965 27.5634 11.083 27.3333 11.083C27.1031 11.083 26.9166 10.8965 26.9166 10.6663C26.9166 10.4362 27.1031 10.2497 27.3333 10.2497C27.5634 10.2497 27.7499 10.4362 27.7499 10.6663ZM11.0833 10.6663C11.0833 10.8965 10.8967 11.083 10.6666 11.083C10.4365 11.083 10.2499 10.8965 10.2499 10.6663C10.2499 10.4362 10.4365 10.2497 10.6666 10.2497C10.8967 10.2497 11.0833 10.4362 11.0833 10.6663ZM24.9999 28.9997H31.3333C32.2667 28.9997 32.7334 28.9997 33.0899 28.818C33.4035 28.6582 33.6585 28.4033 33.8183 28.0897C33.9999 27.7331 33.9999 27.2664 33.9999 26.333V24.9997C33.9999 24.0663 33.9999 23.5995 33.8183 23.243C33.6585 22.9294 33.4035 22.6745 33.0899 22.5147C32.7334 22.333 32.2667 22.333 31.3333 22.333H24.9999C24.0665 22.333 23.5998 22.333 23.2433 22.5147C22.9297 22.6745 22.6747 22.9294 22.5149 23.243C22.3333 23.5995 22.3333 24.0663 22.3333 24.9997V26.333C22.3333 27.2664 22.3333 27.7331 22.5149 28.0897C22.6747 28.4033 22.9297 28.6582 23.2433 28.818C23.5998 28.9997 24.0665 28.9997 24.9999 28.9997Z" stroke="#9A9FA5" stroke-width="3" stroke-linecap="round" stroke-linejoin="round"/>
</svg>
