<svg width="27" height="24" viewBox="0 0 27 24" fill="none" xmlns="http://www.w3.org/2000/svg">
<path d="M14.7694 0C8.76951 0 3.79758 4.40425 2.91016 10.1558C2.83043 10.6725 2.40032 11.0769 1.87747 11.0769H1.80425C1.01881 11.0769 0.539969 11.9409 0.956249 12.6069L3.76739 17.1047C4.15905 17.7314 5.07172 17.7314 5.46338 17.1047L8.3407 12.501C8.72817 11.8811 8.28247 11.0769 7.5514 11.0769C6.99689 11.0769 6.56126 10.5927 6.69065 10.0535C7.56636 6.4043 10.8509 3.69231 14.7692 3.69231C19.3578 3.69231 23.0769 7.41141 23.0769 12C23.0769 16.2508 19.8853 19.7554 15.7674 20.2484C15.219 20.314 14.7692 20.7554 14.7692 21.3077V23C14.7692 23.5523 15.2185 24.0043 15.7689 23.959C21.9287 23.451 26.7692 18.2909 26.7692 12C26.7692 5.37241 21.3968 0 14.7692 0H14.7694Z" fill="#3E3468"/>
<path d="M11.0771 21.2307C11.0771 20.7209 11.4904 20.3076 12.0002 20.3076C12.51 20.3076 12.9233 20.7209 12.9233 21.2307V23.0768C12.9233 23.5866 12.51 23.9999 12.0002 23.9999C11.4904 23.9999 11.0771 23.5866 11.0771 23.0768V21.2307Z" fill="#3E3468"/>
<path d="M7.38477 21.2307C7.38477 20.7209 7.79804 20.3076 8.30784 20.3076C8.81764 20.3076 9.23092 20.7209 9.23092 21.2307V23.0768C9.23092 23.5866 8.81764 23.9999 8.30784 23.9999C7.79804 23.9999 7.38477 23.5866 7.38477 23.0768V21.2307Z" fill="#3E3468"/>
<path d="M11.5459 14.3014C11.2724 14.1971 10.9713 14.1896 10.6928 14.2801C10.4144 14.3706 10.1756 14.5536 10.0163 14.7986C9.85698 15.0436 9.78685 15.3357 9.81763 15.626C9.8484 15.9164 9.97821 16.1874 10.1854 16.3938L10.2389 16.4405C11.0639 17.2548 12.5032 17.143 13.4554 16.1852C14.4076 15.2275 14.508 13.7892 13.683 12.9749C13.6679 12.9583 13.6328 12.9266 13.6328 12.9266C13.3933 12.6878 13.0685 12.5537 12.7299 12.5537C12.3913 12.5537 12.0665 12.6878 11.8271 12.9266C11.6535 13.1037 11.5345 13.3267 11.4841 13.5692C11.4337 13.8116 11.454 14.0634 11.5426 14.2948L11.5459 14.3014Z" fill="#3E3468"/>
<path d="M18.3256 13.1418C18.0386 13.1993 17.7798 13.3534 17.5924 13.5784C17.4051 13.8033 17.3005 14.0855 17.2963 14.3777C17.2921 14.6699 17.3884 14.9544 17.5692 15.1837C17.75 15.413 18.0043 15.5731 18.2896 15.6373L18.3598 15.6483C19.4919 15.8976 20.65 15.0359 20.9453 13.718C21.2405 12.4001 20.5589 11.1297 19.4269 10.8804C19.4052 10.8743 19.3586 10.8662 19.3586 10.8662C19.0288 10.7919 18.6825 10.8515 18.396 11.0319C18.1094 11.2124 17.9061 11.499 17.8307 11.8286C17.7783 12.071 17.7965 12.3231 17.8831 12.5551C17.9696 12.7872 18.121 12.9894 18.3192 13.1379L18.3256 13.1418Z" fill="#3E3468"/>
<path d="M13.8633 7.35911C13.6156 7.20312 13.3218 7.1366 13.0311 7.17067C12.7403 7.20473 12.4702 7.33732 12.2659 7.54627C12.0616 7.75521 11.9355 8.02785 11.9086 8.3186C11.8818 8.60935 11.9559 8.90058 12.1185 9.14362L12.1618 9.19994C12.8109 10.1603 14.2441 10.3333 15.3658 9.58112C16.4875 8.82897 16.8684 7.43839 16.2192 6.47801C16.2077 6.45869 16.1795 6.42071 16.1795 6.42071C15.9916 6.13961 15.6995 5.94434 15.3674 5.87786C15.0354 5.81137 14.6906 5.87912 14.409 6.06619C14.204 6.20583 14.0436 6.40112 13.9465 6.62897C13.8495 6.85681 13.8199 7.10768 13.8614 7.3519L13.8633 7.35911Z" fill="#3E3468"/>
</svg>
