<svg width="48" height="48" viewBox="0 0 48 48" fill="none" xmlns="http://www.w3.org/2000/svg">
<rect width="48" height="48" rx="24" fill="#CABDFF"/>
<path d="M38.8037 23.9911C38.8055 27.0077 37.8623 29.949 36.1067 32.3992C34.3512 34.8496 31.872 36.6853 29.0196 37.6476C26.1671 38.6098 23.0851 38.6495 20.2088 37.7616C17.3324 36.8736 14.8069 35.1026 12.9889 32.6983C12.7327 32.3278 12.6861 31.8509 12.8659 31.4378C13.0459 31.025 13.4262 30.7346 13.8713 30.6711C14.3163 30.6076 14.7626 30.7796 15.0503 31.1257C17.2076 33.9834 20.5422 35.7051 24.1159 35.8063C27.6896 35.9076 31.1159 34.3773 33.4305 31.6464C35.7452 28.9152 36.6982 25.2788 36.0211 21.7604C35.3438 18.2418 33.1098 15.2214 29.9477 13.549C26.7855 11.8769 23.0373 11.7339 19.7574 13.1603C16.4777 14.5864 14.0212 17.4279 13.0792 20.8852L13.2606 20.7033C13.5081 20.462 13.8412 20.3291 14.1864 20.334C14.5317 20.339 14.8611 20.4811 15.1018 20.7291C15.3423 20.9775 15.4749 21.3113 15.47 21.6574C15.4653 22.0035 15.3232 22.3333 15.0758 22.5747L12.2364 25.2909C11.9944 25.525 11.6714 25.6561 11.3351 25.6561C10.9988 25.6561 10.6759 25.525 10.4342 25.2909L7.5945 22.5747C7.26109 22.2495 7.12594 21.7709 7.23996 21.3189C7.35399 20.867 7.69984 20.5101 8.14756 20.3834C8.595 20.2563 9.07628 20.3781 9.40968 20.7033L10.2785 21.5612C10.8877 18.007 12.8057 14.8107 15.6526 12.6054C18.4996 10.3998 22.0687 9.34588 25.654 9.6514C29.239 9.95658 32.5794 11.5996 35.0145 14.2549C37.4493 16.9101 38.8017 20.3843 38.8037 23.9911ZM21.9483 22.6915H29.7277C30.1911 22.6915 30.6191 22.4437 30.8506 22.0416C31.0822 21.6396 31.0822 21.1441 30.8506 20.742C30.6191 20.34 30.1911 20.0922 29.7277 20.0922H21.9483C21.485 20.0922 21.0569 20.34 20.8254 20.742C20.5939 21.1441 20.5939 21.6396 20.8254 22.0416C21.0569 22.4437 21.485 22.6915 21.9483 22.6915ZM21.9483 27.8899H25.838C26.3014 27.8899 26.7294 27.6422 26.9609 27.2401C27.1925 26.838 27.1925 26.3426 26.9609 25.9405C26.7294 25.5384 26.3014 25.2907 25.838 25.2907H21.9483C21.485 25.2907 21.0569 25.5384 20.8254 25.9405C20.5939 26.3426 20.5939 26.838 20.8254 27.2401C21.0569 27.6422 21.485 27.8899 21.9483 27.8899Z" fill="#3E3468" stroke="#3E3468" stroke-width="0.5"/>
</svg>