<svg width="22" height="24" viewBox="0 0 22 24" fill="none" xmlns="http://www.w3.org/2000/svg">
<path d="M19.49 13.2239H19.489L13.0184 16.5938H13.053C12.0099 17.1371 11.1914 18.5436 11.1914 19.7194V23.9957L19.5251 19.6382C20.5678 19.095 21.3883 17.6884 21.3883 16.5126V12.2363L19.49 13.2239Z" fill="#144A23"/>
<path d="M1.8983 11.728H1.89927L8.36992 15.0979H8.33535C9.37841 15.6411 10.1969 17.0475 10.1969 18.2237V22.5L1.86325 18.1421C0.820515 17.5989 0 16.1923 0 15.0163V10.7402L1.8983 11.728Z" fill="#144A23"/>
<path d="M17.4379 8.24679H17.4172L12.554 10.774H12.5836C11.8017 11.1817 11.1914 12.2365 11.1914 13.1185V16.3257L17.4726 13.0575C18.2548 12.6499 18.9012 11.595 18.9012 10.7131V7.50586L17.4379 8.24679Z" fill="#144A23"/>
<path d="M3.95067 6.75049H3.97131L8.83451 9.27815H8.80488C9.58678 9.68552 10.1971 10.7405 10.1971 11.6224V14.8296L3.9159 11.5612C3.13369 11.1539 2.4873 10.0989 2.4873 9.21701V6.00977L3.95067 6.75049Z" fill="#144A23"/>
<path d="M15.2613 4.97967H15.2831L12.0589 6.66466H12.0992C11.5777 6.93627 11.1914 7.63956 11.1914 8.22748V10.3653L15.2961 8.18665C15.8176 7.91544 16.1655 7.21208 16.1655 6.62414V4.48633L15.2613 4.97967Z" fill="#144A23"/>
<path d="M13.0655 4.00155C13.0976 3.50908 12.8017 3.02835 12.4915 2.57474C12.4913 2.57417 10.729 -0.00390625 10.729 -0.00390625L9.13328 2.23691C8.79658 2.71894 8.90748 3.3994 9.37995 3.7493C9.78062 4.04626 10.2541 4.35318 10.5896 4.7327C10.9403 5.1294 11.0261 5.55767 11.0793 6.05435C11.1363 6.03347 12.4082 5.19637 12.8205 4.63774C12.9782 4.42424 13.0518 4.21158 13.0655 4.00149V4.00155Z" fill="#144A23"/>
<path d="M6.12694 3.48358H6.10508L9.32932 5.16857H9.28901C9.81054 5.44017 10.1968 6.14347 10.1968 6.73138V8.8692L6.09215 6.69055C5.57061 6.41926 5.22266 5.71599 5.22266 5.12805V2.99023L6.12694 3.48358Z" fill="#144A23"/>
</svg>
