<svg width="34" height="34" viewBox="0 0 34 34" fill="none" xmlns="http://www.w3.org/2000/svg">
<path d="M24.5 20.3333H24.5167M2 5.33333V28.6667C2 30.5076 3.49238 32 5.33333 32H28.6667C30.5076 32 32 30.5076 32 28.6667V12C32 10.1591 30.5076 8.66667 28.6667 8.66667L5.33333 8.66667C3.49238 8.66667 2 7.17428 2 5.33333ZM2 5.33333C2 3.49238 3.49238 2 5.33333 2H25.3333M25.3333 20.3333C25.3333 20.7936 24.9602 21.1667 24.5 21.1667C24.0398 21.1667 23.6667 20.7936 23.6667 20.3333C23.6667 19.8731 24.0398 19.5 24.5 19.5C24.9602 19.5 25.3333 19.8731 25.3333 20.3333Z" stroke="#9A9FA5" stroke-width="3" stroke-linecap="round" stroke-linejoin="round"/>
</svg>
