<svg width="20" height="20" viewBox="0 0 20 20" fill="none" xmlns="http://www.w3.org/2000/svg">
<path fill-rule="evenodd" clip-rule="evenodd" d="M18.4647 11.4002H11.488V18.4001C11.488 19.1701 10.8601 19.8001 10.0926 19.8001C9.3252 19.8001 8.69729 19.1701 8.69729 18.4001V11.4002H1.72054C0.953102 11.4002 0.325195 10.7702 0.325195 10.0002C0.325195 9.23017 0.953102 8.60017 1.72054 8.60017H8.69729V1.60019C8.69729 0.830193 9.3252 0.200195 10.0926 0.200195C10.8601 0.200195 11.488 0.830193 11.488 1.60019V8.60017H18.4647C19.2322 8.60017 19.8601 9.23017 19.8601 10.0002C19.8601 10.7702 19.2322 11.4002 18.4647 11.4002Z" fill="#6F767E"/>
</svg>
