<svg width="19" height="16" viewBox="0 0 19 16" fill="none" xmlns="http://www.w3.org/2000/svg">
<g clip-path="url(#clip0_2_2)">
<path d="M8.2071 2.2071C8.5976 1.8166 8.5976 1.1834 8.2071 0.7929C7.8166 0.4024 7.1834 0.4024 6.7929 0.7929L1 6.58579C0.219 7.36683 0.219 8.63316 1 9.41421L6.7929 15.2071C7.1834 15.5976 7.8166 15.5976 8.2071 15.2071C8.5976 14.8166 8.5976 14.1834 8.2071 13.7929L3.4142 9L17.5 9C18.0523 9 18.5 8.55228 18.5 8C18.5 7.44771 18.0523 7 17.5 7L3.4142 7L8.2071 2.2071Z" fill="#FCFCFC"/>
</g>
<defs>
<clipPath id="clip0_2_2">
<rect width="19" height="16" fill="white" transform="translate(19 16) rotate(-180)"/>
</clipPath>
</defs>
</svg>
