<svg width="24" height="24" viewBox="0 0 24 24" fill="none" xmlns="http://www.w3.org/2000/svg">
<g clip-path="url(#clip0_113_25036)">
<path d="M24.6128 13.3884C24.582 13.7286 24.4273 14.0068 24.1799 14.2234L19.511 18.1193L22.6339 10.4201L24.3346 12.4609C24.5511 12.7083 24.6439 13.0484 24.6128 13.3885L24.6128 13.3884ZM11.0386 23.5613C11.2552 23.8087 11.5334 23.9634 11.8735 23.9942C12.2137 24.0251 12.523 23.9323 12.7701 23.716L14.5327 22.2627L7.57557 19.4178L11.0386 23.5613ZM22.7267 6.89509L17.13 20.6239C17.0064 20.9332 16.759 21.1803 16.4498 21.3041C16.2951 21.366 16.1405 21.3969 15.955 21.3969C15.8003 21.3969 15.6457 21.366 15.4913 21.3041L8.6887 18.5214H11.1005C12.4611 18.5214 13.5742 17.4082 13.5742 16.0477V14.4708L16.5116 12.7701C16.759 12.6154 16.8826 12.3372 16.7899 12.059L15.8314 8.65757C15.7695 8.47208 15.6459 8.31744 15.4604 8.25554C15.2749 8.19364 15.0894 8.19364 14.9039 8.28638L13.5434 9.0594L13.5432 1.82396L22.0154 5.25615C22.6957 5.53439 23.005 6.24551 22.7265 6.89495L22.7267 6.89509ZM16.0169 16.8516C15.7076 16.728 15.3366 16.8824 15.213 17.1917L14.7493 18.3357C14.6257 18.645 14.7801 19.016 15.0894 19.1396C15.1513 19.1704 15.244 19.1704 15.3368 19.1704C15.5842 19.1704 15.8005 19.0158 15.9243 18.7995L16.3881 17.6554C16.4808 17.3153 16.3262 16.9752 16.0169 16.8516V16.8516ZM14.8729 9.77072L13.5742 10.5129V13.0174L15.4603 11.9351L14.8729 9.77072ZM11.1313 17.3154H1.23672C0.556462 17.3154 0 16.7589 0 16.0787V1.23672C0 0.556462 0.556462 0 1.23672 0H11.1313C11.8116 0 12.3681 0.556462 12.3681 1.23672V16.0787C12.3683 16.7587 11.8116 17.3154 11.1313 17.3154ZM3.09196 2.47343C3.09196 2.1333 2.81372 1.85508 2.4736 1.85508C2.13348 1.85508 1.85524 2.13331 1.85524 2.47343V3.71015C1.85524 4.05029 2.13348 4.32851 2.4736 4.32851C2.81372 4.32851 3.09196 4.05027 3.09196 3.71015V2.47343ZM9.12149 7.3589C8.84326 6.64778 8.19382 6.18386 7.4208 6.12219C6.95708 6.09134 6.52421 6.21493 6.153 6.43148C5.78202 6.21493 5.34911 6.09134 4.88519 6.12219C4.11218 6.15303 3.46273 6.61697 3.1845 7.3589C2.90626 8.10106 3.06091 8.90494 3.61738 9.4614L5.71988 11.595C5.84346 11.7186 5.99811 11.7805 6.15275 11.7805C6.3074 11.7805 6.49289 11.7186 6.58563 11.595L8.68813 9.4614C9.24503 8.90494 9.39969 8.10106 9.12145 7.3589H9.12149ZM10.5129 13.6049C10.5129 13.2647 10.2346 12.9865 9.89451 12.9865C9.55437 12.9865 9.27615 13.2648 9.27615 13.6049V14.8416C9.27615 15.1817 9.55439 15.46 9.89451 15.46C10.2347 15.46 10.5129 15.1817 10.5129 14.8416V13.6049ZM7.3589 7.3589H7.297C7.01877 7.3589 6.77138 7.45165 6.58588 7.6682C6.33849 7.91559 5.93644 7.91559 5.68929 7.6682C5.5038 7.48271 5.25641 7.3589 4.97817 7.3589H4.91627C4.51423 7.38975 4.35981 7.6682 4.32872 7.79178C4.29788 7.88453 4.17407 8.25551 4.48337 8.5648L6.12216 10.2655L7.76096 8.5648C8.07026 8.25551 7.94645 7.88455 7.91561 7.79178C7.91561 7.69904 7.76096 7.38975 7.35893 7.3589H7.3589Z" fill="black"/>
</g>
<defs>
<clipPath id="clip0_113_25036">
<rect width="24" height="24" fill="white"/>
</clipPath>
</defs>
</svg>
