<svg width="46" height="46" viewBox="0 0 46 46" fill="none" xmlns="http://www.w3.org/2000/svg">
<path d="M23 46C35.7025 46 46 35.7025 46 23C46 18.8902 44.9221 15.0321 43.0335 11.6932C42.8736 11.4104 42.4891 11.3636 42.2594 11.5933L23.9527 29.9C22.1563 31.6964 19.2437 31.6964 17.4473 29.9L11.0237 23.4763C10.1254 22.5781 10.1254 21.1219 11.0237 20.2237C11.9219 19.3254 13.3781 19.3254 14.2763 20.2237L20.7 26.6473L39.5903 7.77026C39.78 7.58074 39.7868 7.27493 39.6012 7.08142C35.4152 2.71703 29.5249 0 23 0C10.2975 0 0 10.2975 0 23C0 35.7025 10.2975 46 23 46Z" fill="#83BF6E"/>
</svg>
