<svg width="12" height="12" viewBox="0 0 12 12" fill="none" xmlns="http://www.w3.org/2000/svg">
<path d="M1.58958 0.41107C1.26414 0.085633 0.736507 0.0856329 0.41107 0.41107C0.085633 0.736506 0.0856329 1.26414 0.41107 1.58958L4.82183 6.00034L0.411094 10.4111C0.0856571 10.7365 0.0856571 11.2641 0.411094 11.5896C0.736531 11.915 1.26417 11.915 1.58961 11.5896L6.00034 7.17885L10.4111 11.5896C10.7365 11.915 11.2642 11.915 11.5896 11.5896C11.915 11.2642 11.915 10.7365 11.5896 10.4111L7.17885 6.00034L11.5896 1.58958C11.915 1.26415 11.915 0.736508 11.5896 0.411071C11.2642 0.085634 10.7365 0.0856344 10.4111 0.411071L6.00034 4.82183L1.58958 0.41107Z" fill="#33383F"/>
</svg>
