<svg width="24" height="24" viewBox="0 0 24 24" fill="none" xmlns="http://www.w3.org/2000/svg">
<path d="M19.5256 17.9857C19.3671 18.0724 19.2237 18.1216 19.0953 18.1291C18.9669 18.1404 18.8576 18.1103 18.767 18.0499C18.6803 17.9857 18.6123 17.8876 18.5782 17.7592C18.5404 17.6308 18.5328 17.4686 18.5632 17.276C18.5895 17.0834 18.6499 16.8836 18.7367 16.6872C18.8235 16.4871 18.933 16.2911 19.0612 16.106C19.1896 15.9209 19.333 15.7512 19.4877 15.6077C19.6424 15.4643 19.8009 15.3434 19.9631 15.2604C20.1254 15.1774 20.2726 15.1396 20.3972 15.1396C20.5218 15.1396 20.6274 15.1774 20.7104 15.2489C20.7934 15.3206 20.8501 15.4262 20.8764 15.5583C20.9065 15.6905 20.9065 15.8527 20.8726 16.0415C20.8425 16.2266 20.7783 16.4189 20.6954 16.6115C20.6123 16.8003 20.5065 16.9889 20.3859 17.1624C20.2651 17.3359 20.1294 17.4984 19.9822 17.6419C19.839 17.7783 19.684 17.8989 19.5256 17.9857H19.5256ZM13.1624 13.7624C12.9435 13.8567 12.7396 13.9021 12.5548 13.8946C12.3697 13.8908 12.2037 13.8379 12.0641 13.7399C11.9244 13.6418 11.8151 13.5021 11.7434 13.3246C11.6716 13.1436 11.6378 12.9246 11.6491 12.6716C11.6603 12.4189 11.7208 12.1546 11.8188 11.8978C11.9169 11.6412 12.049 11.3882 12.2113 11.1581C12.3735 10.9279 12.5623 10.7202 12.7662 10.5467C12.97 10.3732 13.1927 10.2373 13.4154 10.1505C13.6418 10.0638 13.8494 10.0334 14.0342 10.0562C14.2193 10.075 14.3778 10.1468 14.5059 10.2563C14.6343 10.3657 14.7286 10.5169 14.789 10.7055C14.8495 10.8905 14.8683 11.1092 14.8495 11.3546C14.8269 11.5999 14.7627 11.8491 14.6684 12.0906C14.5741 12.3321 14.4457 12.5661 14.2948 12.7812C14.1438 12.9964 13.9703 13.1965 13.7777 13.3625C13.5851 13.5285 13.3775 13.6681 13.1624 13.7624H13.1624ZM22.7336 5.1913L11.849 9.11642C11.6717 9.18061 11.4941 9.28617 11.3357 9.41832C11.1734 9.55047 11.0262 9.71271 10.9016 9.89C10.777 10.0673 10.6714 10.2636 10.5959 10.4675C10.5205 10.6676 10.4788 10.8752 10.4713 11.0751L10.0297 23.4208C10.026 23.5642 10.0523 23.6851 10.1052 23.7756C10.1581 23.8661 10.2374 23.9303 10.3316 23.9682C10.4297 24.002 10.543 24.0098 10.6752 23.987C10.8036 23.9644 10.947 23.9115 11.0942 23.8248L20.4389 18.4654C20.5482 18.4012 20.6578 18.3144 20.7633 18.2126C20.8651 18.1108 20.9634 17.9937 21.054 17.8653C21.1407 17.7407 21.2162 17.6048 21.2766 17.4691C21.3371 17.3332 21.3822 17.1973 21.405 17.0654L23.394 6.13898C23.4241 5.96546 23.4319 5.81074 23.4128 5.67483C23.394 5.53892 23.3561 5.42583 23.2957 5.33882C23.2353 5.25205 23.156 5.19162 23.0617 5.1653C22.9712 5.13847 22.8581 5.14599 22.7335 5.19137L22.7336 5.1913ZM8.49343 20.9901C8.48967 21.1902 8.45557 21.3524 8.39539 21.4695C8.33496 21.5866 8.25196 21.6621 8.15015 21.6922C8.04835 21.7223 7.92748 21.711 7.79534 21.6583C7.66319 21.6054 7.52351 21.5074 7.37256 21.3639C7.22537 21.2205 7.08569 21.0508 6.95731 20.8582C6.83268 20.6694 6.71583 20.4582 6.62129 20.2431C6.527 20.0279 6.44777 19.8053 6.3911 19.5901C6.33443 19.3712 6.30434 19.1598 6.30058 18.9635C6.29681 18.7671 6.32314 18.6049 6.37229 18.4802C6.42144 18.3556 6.49692 18.2689 6.59121 18.2237C6.68549 18.1783 6.8026 18.1746 6.93098 18.2162C7.06313 18.2578 7.20656 18.3446 7.36128 18.4843C7.516 18.6239 7.66319 18.7975 7.7991 18.9938C7.93501 19.1939 8.05562 19.4128 8.16144 19.643C8.26324 19.8732 8.3465 20.1109 8.40292 20.3411C8.46686 20.5673 8.4972 20.7899 8.49344 20.99L8.49343 20.9901ZM8.61029 12.0832C8.60653 12.3359 8.56867 12.5511 8.50097 12.7173C8.43301 12.8833 8.33873 13.008 8.22538 13.0834C8.11203 13.1589 7.97638 13.1852 7.82919 13.1627C7.68199 13.1401 7.52351 13.0646 7.35751 12.94C7.1915 12.8154 7.03679 12.6456 6.89712 12.453C6.75745 12.2605 6.62906 12.0378 6.52349 11.8001C6.41793 11.5661 6.33091 11.3131 6.26697 11.0604C6.20654 10.8076 6.16893 10.5508 6.16516 10.3094C6.1614 10.0641 6.19149 9.85272 6.24441 9.67895C6.30108 9.50543 6.38408 9.36952 6.48964 9.27899C6.59521 9.18847 6.7236 9.13932 6.87079 9.14684C7.01799 9.15436 7.18023 9.21104 7.35024 9.32789C7.52376 9.44499 7.69002 9.61476 7.84097 9.81485C7.99193 10.015 8.13159 10.2489 8.2487 10.5017C8.3658 10.7544 8.45633 11.0225 8.52052 11.2943C8.5802 11.5586 8.61406 11.8267 8.61029 12.0832V12.0832ZM5.58344 14.3289C5.5872 14.5441 5.56463 14.7251 5.51548 14.8648C5.46633 15.0045 5.39462 15.1025 5.30409 15.163C5.21356 15.2196 5.10775 15.2347 4.9909 15.2084C4.87379 15.1783 4.7419 15.1065 4.60598 14.9894C4.47007 14.8723 4.33793 14.7176 4.21731 14.5403C4.09645 14.363 3.98712 14.1667 3.89659 13.9553C3.80231 13.7439 3.72683 13.525 3.6664 13.3023C3.60973 13.0797 3.57212 12.8608 3.56084 12.6494C3.54955 12.438 3.56836 12.2569 3.60622 12.1135C3.64785 11.9663 3.71179 11.857 3.79128 11.7853C3.87428 11.7135 3.97634 11.6834 4.09319 11.6985C4.21029 11.7135 4.34219 11.774 4.48562 11.8873C4.62906 12.0006 4.76497 12.1554 4.89336 12.3364C5.02174 12.5175 5.1386 12.7288 5.24066 12.9515C5.34246 13.1742 5.4217 13.4119 5.48213 13.6458C5.54558 13.876 5.57968 14.11 5.58344 14.3289L5.58344 14.3289ZM3.21328 16.1065C3.22457 16.2953 3.20952 16.45 3.17166 16.5707C3.1378 16.6915 3.08113 16.7745 3.00942 16.8197C2.9377 16.865 2.85094 16.8726 2.75289 16.8422C2.65485 16.8121 2.54527 16.7404 2.42842 16.6271C2.31131 16.5177 2.20199 16.3743 2.09616 16.2118C1.99436 16.0496 1.89606 15.872 1.81306 15.6835C1.73005 15.4947 1.65834 15.2948 1.60543 15.0985C1.55252 14.9021 1.5149 14.706 1.50362 14.521C1.48858 14.3359 1.49986 14.1812 1.52619 14.0568C1.55628 13.9322 1.60543 13.8417 1.67339 13.785C1.74134 13.7283 1.82434 13.7095 1.91863 13.7283C2.01667 13.7509 2.12625 13.8113 2.24687 13.9171C2.36773 14.0227 2.48458 14.1661 2.59417 14.3324C2.7035 14.4984 2.80556 14.6872 2.89608 14.8873C2.98284 15.0874 3.05831 15.2988 3.11499 15.5062C3.16414 15.7141 3.202 15.9177 3.21328 16.1065L3.21328 16.1065ZM2.74913 7.84863C2.76041 8.07882 2.74913 8.27892 2.70751 8.44117C2.66964 8.6034 2.60946 8.72427 2.53398 8.80727C2.4585 8.89027 2.36422 8.9319 2.25464 8.92437C2.14907 8.92061 2.02821 8.87146 1.90358 8.77341C1.77895 8.67537 1.65458 8.53946 1.54124 8.37722C1.4279 8.21498 1.32232 8.02615 1.2318 7.8223C1.14128 7.61844 1.06204 7.39576 1.00537 7.17311C0.94494 6.94668 0.903569 6.71648 0.888271 6.49381C0.869465 6.26738 0.880749 6.07104 0.910839 5.90503C0.94093 5.73903 0.993841 5.60688 1.06556 5.5126C1.13727 5.41831 1.22779 5.36164 1.32986 5.35412C1.43542 5.34283 1.55629 5.38045 1.68467 5.47122C1.81682 5.56174 1.94521 5.69389 2.06582 5.85989C2.18669 6.02589 2.29978 6.22599 2.39808 6.44114C2.49612 6.66006 2.57912 6.89401 2.63955 7.13174C2.69622 7.37297 2.73384 7.61469 2.74913 7.84865L2.74913 7.84863ZM0.00883574 4.32731L0.929885 15.1741C0.941169 15.3063 0.967749 15.4459 1.00536 15.5856C1.04323 15.7253 1.09589 15.8687 1.15632 16.0046C1.21675 16.1405 1.28471 16.2727 1.35643 16.3858C1.43191 16.5029 1.50738 16.6047 1.59038 16.6839L8.58427 23.5603C8.69761 23.6737 8.8107 23.7529 8.90875 23.798C9.01056 23.8472 9.10509 23.8622 9.18434 23.8434C9.26358 23.8246 9.33153 23.7755 9.37692 23.6962C9.42606 23.6132 9.4524 23.4999 9.45616 23.3565L9.79593 11.0107C9.7997 10.8106 9.77713 10.5992 9.72798 10.3881C9.67883 10.1767 9.60712 9.96534 9.51659 9.76925C9.42606 9.57291 9.31649 9.39186 9.19587 9.23338C9.07501 9.07866 8.94311 8.95028 8.80344 8.85976L0.564187 3.50408C0.473662 3.44365 0.386904 3.42484 0.311425 3.43613C0.235946 3.44741 0.175514 3.49656 0.122606 3.57204C0.0734571 3.64752 0.0358415 3.74932 0.0170392 3.87771C-0.0020186 4.0061 -0.00577995 4.15705 0.00926575 4.32681L0.00883574 4.32731ZM12.83 4.08534C12.6337 4.14201 12.4072 4.17963 12.1733 4.19868C11.9356 4.21748 11.6901 4.21748 11.4486 4.19868C11.2072 4.17987 10.9692 4.14201 10.7505 4.08935C10.5354 4.03644 10.339 3.96849 10.1768 3.88172C10.0183 3.79872 9.90497 3.7082 9.84454 3.61366C9.78411 3.52314 9.76906 3.4286 9.79915 3.34184C9.82925 3.25508 9.90096 3.17208 10.0181 3.0966C10.1314 3.02112 10.2899 2.95693 10.4822 2.90778C10.6748 2.85487 10.8937 2.82478 11.1164 2.80974C11.3391 2.7947 11.5692 2.79469 11.7995 2.8135C12.0259 2.82855 12.2523 2.86265 12.46 2.91154C12.6676 2.96069 12.8599 3.02087 13.0224 3.10036C13.1846 3.1796 13.3055 3.2626 13.381 3.35313C13.4565 3.44365 13.4865 3.53417 13.4715 3.62119C13.4565 3.71171 13.396 3.79847 13.2905 3.87771C13.1811 3.95695 13.0264 4.02867 12.8301 4.08534H12.83ZM11.6525 0.058215L1.41683 2.36039C1.25459 2.39825 1.11868 2.44339 1.0091 2.4963C0.89977 2.54921 0.82028 2.60964 0.771384 2.66982C0.722236 2.73402 0.703428 2.79821 0.722235 2.8624C0.741042 2.9266 0.793953 2.99079 0.888234 3.05122L9.19553 8.30855C9.3352 8.39908 9.50872 8.47079 9.7013 8.5237C9.89389 8.58037 10.105 8.61423 10.3202 8.63303C10.5353 8.65184 10.758 8.64808 10.9694 8.62927C11.1807 8.6067 11.3846 8.56507 11.5619 8.50088L22.4806 4.68534C22.6052 4.63996 22.6957 4.5873 22.7449 4.52311C22.7978 4.46267 22.8128 4.39472 22.794 4.323C22.7752 4.25505 22.7223 4.18333 22.6393 4.11161C22.5563 4.04366 22.4392 3.9757 22.292 3.91527L13.2792 0.171241C13.1737 0.125854 13.049 0.0920004 12.9169 0.0656746C12.781 0.0393449 12.6375 0.0202881 12.4904 0.00900413C12.3432 -0.00227982 12.196 -0.00227981 12.0525 0.00524278C11.9129 0.0127656 11.7732 0.0318227 11.6523 0.0581524" fill="black"/>
</svg>
