<svg width="14" height="14" viewBox="0 0 14 14" fill="none" xmlns="http://www.w3.org/2000/svg">
<path fill-rule="evenodd" clip-rule="evenodd" d="M13.6663 6.99967C13.6663 10.6816 10.6816 13.6663 6.99967 13.6663C3.31778 13.6663 0.333008 10.6816 0.333008 6.99967C0.333008 3.31778 3.31778 0.333008 6.99967 0.333008C10.6816 0.333008 13.6663 3.31778 13.6663 6.99967ZM6.99967 6.33301C7.36786 6.33301 7.66634 6.63148 7.66634 6.99967V10.3336C7.66634 10.7018 7.36786 11.0003 6.99967 11.0003C6.63148 11.0003 6.33301 10.7018 6.33301 10.3336V6.99967C6.33301 6.63148 6.63148 6.33301 6.99967 6.33301ZM6.99967 4.99967C7.36786 4.99967 7.66634 4.7012 7.66634 4.33301C7.66634 3.96482 7.36786 3.66634 6.99967 3.66634C6.63148 3.66634 6.33301 3.96482 6.33301 4.33301C6.33301 4.7012 6.63148 4.99967 6.99967 4.99967Z" fill="#9A9FA5"/>
</svg>
