<svg width="24" height="18" viewBox="0 0 24 18" fill="none" xmlns="http://www.w3.org/2000/svg">
<path d="M4.59162 0H2.71129L0 1.74183V3.55291L2.55149 1.92294H2.61541V10.9091H4.59162V0Z" fill="black"/>
<path d="M7.20455 10.9091H5.5L5.46271 11.5057C5.37216 12.9492 4.99396 14.4194 4.83949 15.0639H6.1392C6.39489 14.3928 6.98615 12.8374 7.1353 11.495L7.20455 10.9091Z" fill="black"/>
<path d="M7.68159 15.0582H15.1603V13.407H10.4089V13.3324L12.2892 11.4201C14.4092 9.3853 14.9952 8.39453 14.9952 7.16406C14.9952 5.337 13.509 4 11.3144 4C9.15176 4 7.61767 5.34233 7.61767 7.41442H9.49799C9.49799 6.30114 10.2011 5.60334 11.2878 5.60334C12.3265 5.60334 13.0988 6.23722 13.0988 7.26527C13.0988 8.17614 12.5449 8.82599 11.4689 9.91797L7.68159 13.6307V15.0582Z" fill="black"/>
<path d="M17.9994 13.407H16.2949L16.2576 14.0036C16.167 15.4471 15.7888 16.9173 15.6344 17.5618H16.9341C17.1898 16.8906 17.781 15.3352 17.9302 13.9929L17.9994 13.407Z" fill="black"/>
<path d="M19.8691 11.2074C22.2022 11.2074 23.9014 9.87038 23.8961 8.02734C23.9014 6.66371 23.0491 5.68359 21.5204 5.4652V5.37997C22.7029 5.12429 23.4966 4.24538 23.4912 3.02024C23.4966 1.35831 22.0797 0 19.9011 0C17.781 0 16.1404 1.26243 16.0978 3.08949H17.9994C18.0314 2.1733 18.8836 1.60334 19.8904 1.60334C20.9078 1.60334 21.5843 2.22123 21.579 3.13743C21.5843 4.09091 20.7959 4.72479 19.6667 4.72479H18.7025V6.24822H19.6667C21.0463 6.24822 21.8666 6.9407 21.8613 7.92614C21.8666 8.89027 21.0303 9.55078 19.8638 9.55078C18.7665 9.55078 17.9195 8.98082 17.8716 8.09126H15.8687C15.922 9.9343 17.568 11.2074 19.8691 11.2074Z" fill="black"/>
</svg>
