<svg width="8" height="12" viewBox="0 0 8 12" fill="none" xmlns="http://www.w3.org/2000/svg">
<path d="M7.20711 1.70711C7.59763 1.31658 7.59763 0.683418 7.20711 0.292893C6.81658 -0.0976311 6.18342 -0.0976311 5.79289 0.292893L7.20711 1.70711ZM1.5 6L0.792894 5.29289C0.402369 5.68342 0.402369 6.31658 0.792894 6.70711L1.5 6ZM5.79289 11.7071C6.18342 12.0976 6.81658 12.0976 7.20711 11.7071C7.59763 11.3166 7.59763 10.6834 7.20711 10.2929L5.79289 11.7071ZM5.79289 0.292893L0.792894 5.29289L2.20711 6.70711L7.20711 1.70711L5.79289 0.292893ZM0.792894 6.70711L5.79289 11.7071L7.20711 10.2929L2.20711 5.29289L0.792894 6.70711Z" fill="#1A1D1F"/>
</svg>
