<svg width="40" height="40" viewBox="0 0 40 40" fill="none" xmlns="http://www.w3.org/2000/svg">
<rect width="40" height="40" rx="20" fill="#CABDFF"/>
<path d="M20.7694 8C14.7695 8 9.79758 12.4042 8.91016 18.1558C8.83043 18.6725 8.40032 19.0769 7.87747 19.0769H7.80425C7.01881 19.0769 6.53997 19.9409 6.95625 20.6069L9.76739 25.1047C10.1591 25.7314 11.0717 25.7314 11.4634 25.1047L14.3407 20.501C14.7282 19.8811 14.2825 19.0769 13.5514 19.0769C12.9969 19.0769 12.5613 18.5927 12.6907 18.0535C13.5664 14.4043 16.8509 11.6923 20.7692 11.6923C25.3578 11.6923 29.0769 15.4114 29.0769 20C29.0769 24.2508 25.8853 27.7554 21.7674 28.2484C21.219 28.314 20.7692 28.7554 20.7692 29.3077V31C20.7692 31.5523 21.2185 32.0043 21.7689 31.959C27.9287 31.451 32.7692 26.2909 32.7692 20C32.7692 13.3724 27.3968 8 20.7692 8H20.7694Z" fill="#3E3468"/>
<path d="M17.0771 29.2307C17.0771 28.7209 17.4904 28.3076 18.0002 28.3076C18.51 28.3076 18.9233 28.7209 18.9233 29.2307V31.0768C18.9233 31.5866 18.51 31.9999 18.0002 31.9999C17.4904 31.9999 17.0771 31.5866 17.0771 31.0768V29.2307Z" fill="#3E3468"/>
<path d="M13.3848 29.2307C13.3848 28.7209 13.798 28.3076 14.3078 28.3076C14.8176 28.3076 15.2309 28.7209 15.2309 29.2307V31.0768C15.2309 31.5866 14.8176 31.9999 14.3078 31.9999C13.798 31.9999 13.3848 31.5866 13.3848 31.0768V29.2307Z" fill="#3E3468"/>
<path d="M17.5459 22.3014C17.2724 22.1971 16.9713 22.1896 16.6928 22.2801C16.4144 22.3706 16.1756 22.5536 16.0163 22.7986C15.857 23.0436 15.7869 23.3357 15.8176 23.626C15.8484 23.9164 15.9782 24.1874 16.1854 24.3938L16.2389 24.4405C17.0639 25.2548 18.5032 25.143 19.4554 24.1852C20.4076 23.2275 20.508 21.7892 19.683 20.9749C19.6679 20.9583 19.6328 20.9266 19.6328 20.9266C19.3933 20.6878 19.0685 20.5537 18.7299 20.5537C18.3913 20.5537 18.0665 20.6878 17.8271 20.9266C17.6535 21.1037 17.5345 21.3267 17.4841 21.5692C17.4337 21.8116 17.454 22.0634 17.5426 22.2948L17.5459 22.3014Z" fill="#3E3468"/>
<path d="M24.3256 21.1418C24.0386 21.1993 23.7798 21.3534 23.5924 21.5784C23.4051 21.8033 23.3005 22.0855 23.2963 22.3777C23.2921 22.6699 23.3884 22.9544 23.5692 23.1837C23.75 23.413 24.0043 23.5731 24.2896 23.6373L24.3598 23.6483C25.4919 23.8976 26.65 23.0359 26.9453 21.718C27.2405 20.4001 26.5589 19.1297 25.4269 18.8804C25.4052 18.8743 25.3586 18.8662 25.3586 18.8662C25.0288 18.7919 24.6825 18.8515 24.396 19.0319C24.1094 19.2124 23.9061 19.499 23.8307 19.8286C23.7783 20.071 23.7965 20.3231 23.8831 20.5551C23.9696 20.7872 24.121 20.9894 24.3192 21.1379L24.3256 21.1418Z" fill="#3E3468"/>
<path d="M19.8633 15.3591C19.6156 15.2031 19.3218 15.1366 19.0311 15.1707C18.7403 15.2047 18.4702 15.3373 18.2659 15.5463C18.0616 15.7552 17.9355 16.0279 17.9086 16.3186C17.8818 16.6094 17.9559 16.9006 18.1185 17.1436L18.1618 17.1999C18.8109 18.1603 20.2441 18.3333 21.3658 17.5811C22.4875 16.829 22.8684 15.4384 22.2192 14.478C22.2077 14.4587 22.1795 14.4207 22.1795 14.4207C21.9916 14.1396 21.6995 13.9443 21.3674 13.8779C21.0354 13.8114 20.6906 13.8791 20.409 14.0662C20.204 14.2058 20.0436 14.4011 19.9465 14.629C19.8495 14.8568 19.8199 15.1077 19.8614 15.3519L19.8633 15.3591Z" fill="#3E3468"/>
</svg>
