<svg width="24" height="21" viewBox="0 0 24 21" fill="none" xmlns="http://www.w3.org/2000/svg">
<path d="M8.70989 18.1561H2.23471C1.90455 18.1561 1.62524 17.8768 1.62524 17.5466V5.12953H21.2793V10.1827L21.3046 10.208H22.6251C22.7266 10.208 22.8029 10.208 22.9044 10.2334V1.75215C22.9044 0.787178 22.1173 0 21.1523 0H1.75215C0.787178 0 0 0.787132 0 1.75215V17.5465C0 18.7908 0.99032 19.7811 2.23461 19.7811H8.73518C8.73518 19.7049 8.70985 19.6033 8.70985 19.5018L8.70989 18.1561ZM8.70989 1.59997C9.2177 1.59997 9.64938 2.03162 9.64938 2.53946C9.64938 3.04729 9.21772 3.47895 8.70989 3.47895C8.20205 3.47895 7.7704 3.04729 7.7704 2.53946C7.7959 2.03165 8.20205 1.59997 8.70989 1.59997ZM5.86593 1.59997C6.37375 1.59997 6.80543 2.03162 6.80543 2.53946C6.80543 3.04729 6.37377 3.47895 5.86593 3.47895C5.3581 3.47895 4.92645 3.04729 4.92645 2.53946C4.92645 2.03162 5.3581 1.59997 5.86593 1.59997ZM3.02198 1.59997C3.52979 1.59997 3.96147 2.03162 3.96147 2.53946C3.96147 3.04729 3.52982 3.47895 3.02198 3.47895C2.51415 3.47895 2.08249 3.04729 2.08249 2.53946C2.08249 2.03162 2.51415 1.59997 3.02198 1.59997Z" fill="#1A1D1F"/>
<path d="M22.625 11.6554H20.9746C20.6699 11.6554 20.416 11.5031 20.2636 11.2491L19.8828 10.6651C19.6288 10.2843 19.1971 10.0303 18.7401 10.0303H15.5404C15.0834 10.0303 14.6515 10.2588 14.3977 10.6651L14.0169 11.2491C13.8646 11.5031 13.5853 11.6554 13.3059 11.6554H11.6555C10.8428 11.6554 10.1573 12.3156 10.1573 13.1535V19.5017C10.1573 20.3144 10.8175 20.9999 11.6555 20.9999H22.6506C23.4632 20.9999 24.1487 20.3397 24.1487 19.5017V13.1535C24.1232 12.3156 23.4631 11.6554 22.625 11.6554H22.625ZM17.1402 19.4256C15.2866 19.4256 13.7629 17.902 13.7629 16.0484C13.7629 14.1948 15.2866 12.6711 17.1402 12.6711C18.9938 12.6711 20.5174 14.1948 20.5174 16.0484C20.5174 17.9273 18.9938 19.4256 17.1402 19.4256Z" fill="#1A1D1F"/>
<path d="M17.1402 14.0938C16.0484 14.0938 15.1595 14.9826 15.1595 16.0744C15.1595 17.1662 16.0484 18.055 17.1402 18.055C18.232 18.055 19.1208 17.1662 19.1208 16.0744C19.1208 14.9826 18.232 14.0938 17.1402 14.0938Z" fill="#1A1D1F"/>
</svg>
